#N canvas 419 443 926 548 10;
#X obj 124 81 f \$1;
#X floatatom 124 117 5 0 0 0 contains.the.argument.1 - -;
#X obj 124 39 loadbang;
#X floatatom 311 187 5 0 0 0 contains.the.argument.1 - -;
#X obj 311 150 f \$2;
#X msg 238 271 set \$1 \$2;
#X msg 238 306;
#X text 235 331 contains no arguments but [0 0( because \$1 and \$2
are not known inside the [set \$1 \$2' message above \, just like in
this comment;
#X connect 0 0 1 0;
#X connect 2 0 0 0;
#X connect 2 0 4 0;
#X connect 2 0 5 0;
#X connect 4 0 3 0;
#X connect 5 0 6 0;
