#N canvas 0 50 450 300 12;
#X obj 44 90 cputime;
#X obj 44 15 tgl 15 0 empty empty empty 17 7 0 10 -262144 -1 -1 0 1
;
#X obj 44 38 metro 1000;
#X floatatom 131 100 5 0 0 0 - - -;
#X obj 57 64 del 1000;
#X obj 44 116 / 1000;
#X obj 114 13 loadbang;
#X connect 0 0 5 0;
#X connect 1 0 2 0;
#X connect 2 0 0 0;
#X connect 2 0 4 0;
#X connect 4 0 0 1;
#X connect 5 0 3 0;
#X connect 6 0 1 0;
#X coords 0 -1 1 1 70 20 1 100 100;
