#N canvas 0 50 529 426 12;
#X obj 9 214 *~;
#X obj 8 140 inlet~;
#X obj 62 119 log 2;
#X obj 62 96 /;
#X obj 27 48 select 0;
#X msg 61 73 1;
#X msg 27 73 0;
#X obj 62 142 expr pow(10 \, -(($f1 * $f2) / 20));
#X msg 290 103 10;
#X obj 290 78 loadbang;
#X obj 27 8 inlet;
#X text 71 7 input between 0 and 1;
#X obj 232 9 inlet;
#X text 277 9 scaling afterwards;
#X obj 9 238 *~ 1;
#X obj 9 264 outlet~;
#X msg 62 168 \$1 5;
#X obj 62 194 line~;
#X connect 0 0 14 0;
#X connect 1 0 0 0;
#X connect 2 0 7 0;
#X connect 3 0 2 0;
#X connect 4 0 6 0;
#X connect 4 1 3 1;
#X connect 4 1 5 0;
#X connect 5 0 3 0;
#X connect 6 0 16 0;
#X connect 7 0 16 0;
#X connect 8 0 7 1;
#X connect 9 0 8 0;
#X connect 10 0 4 0;
#X connect 12 0 14 1;
#X connect 14 0 15 0;
#X connect 16 0 17 0;
#X connect 17 0 0 1;
