#N canvas 272 274 1503 601 12;
#X obj 866 374 ctlout;
#X obj 869 345 ctlin;
#X text 472 319 Pads on CC;
#X obj 833 224 * 95000;
#X obj 833 249 + 1000;
#X obj 491 27 cnv 15 10 10 empty empty Control_map 20 12 0 20 #fcfcfc
#000000 0;
#X obj 1063 246 line;
#X msg 1063 223 \$1 100;
#X obj 490 113 s fdbck-amt;
#X obj 833 199 expr pow($f1 \, 3);
#X obj 575 113 s del-feedback;
#N canvas 441 184 1073 368 controles 0;
#X floatatom 15 36 5 0 0 0 - - - 0;
#X obj 15 59 / 127;
#X obj 15 83 s ctl1;
#X obj 15 12 ctlin 16 1;
#X floatatom 99 36 5 0 0 0 - - - 0;
#X obj 99 59 / 127;
#X floatatom 183 36 5 0 0 0 - - - 0;
#X obj 183 59 / 127;
#X floatatom 267 36 5 0 0 0 - - - 0;
#X obj 267 59 / 127;
#X floatatom 351 36 5 0 0 0 - - - 0;
#X obj 351 59 / 127;
#X floatatom 435 36 5 0 0 0 - - - 0;
#X obj 435 59 / 127;
#X floatatom 519 36 5 0 0 0 - - - 0;
#X obj 519 59 / 127;
#X floatatom 603 36 5 0 0 0 - - - 0;
#X obj 603 59 / 127;
#X floatatom 16 133 5 0 0 0 - - - 0;
#X obj 16 156 / 127;
#X floatatom 100 133 5 0 0 0 - - - 0;
#X obj 100 156 / 127;
#X floatatom 184 133 5 0 0 0 - - - 0;
#X obj 184 156 / 127;
#X floatatom 268 133 5 0 0 0 - - - 0;
#X obj 268 156 / 127;
#X floatatom 352 133 5 0 0 0 - - - 0;
#X obj 352 156 / 127;
#X floatatom 436 133 5 0 0 0 - - - 0;
#X obj 436 156 / 127;
#X floatatom 520 133 5 0 0 0 - - - 0;
#X obj 520 156 / 127;
#X floatatom 604 133 5 0 0 0 - - - 0;
#X obj 604 156 / 127;
#X obj 99 12 ctlin 16 2;
#X obj 183 12 ctlin 16 3;
#X obj 267 12 ctlin 16 4;
#X obj 351 12 ctlin 16 5;
#X obj 435 12 ctlin 16 6;
#X obj 519 12 ctlin 16 7;
#X obj 603 12 ctlin 16 8;
#X obj 16 109 ctlin 16 9;
#X obj 100 109 ctlin 16 10;
#X obj 184 109 ctlin 16 11;
#X obj 268 109 ctlin 16 12;
#X obj 352 109 ctlin 16 13;
#X obj 436 109 ctlin 16 14;
#X obj 520 109 ctlin 16 15;
#X obj 604 109 ctlin 16 16;
#X obj 99 83 s ctl2;
#X obj 183 83 s ctl3;
#X obj 267 83 s ctl4;
#X obj 351 83 s ctl5;
#X obj 435 83 s ctl6;
#X obj 519 83 s ctl7;
#X obj 603 83 s ctl8;
#X floatatom 15 230 5 0 0 0 - - - 0;
#X obj 15 253 / 127;
#X floatatom 99 230 5 0 0 0 - - - 0;
#X obj 99 253 / 127;
#X floatatom 183 230 5 0 0 0 - - - 0;
#X obj 183 253 / 127;
#X floatatom 267 230 5 0 0 0 - - - 0;
#X obj 267 253 / 127;
#X floatatom 351 230 5 0 0 0 - - - 0;
#X obj 351 253 / 127;
#X floatatom 435 230 5 0 0 0 - - - 0;
#X obj 435 253 / 127;
#X floatatom 519 230 5 0 0 0 - - - 0;
#X obj 519 253 / 127;
#X floatatom 603 230 5 0 0 0 - - - 0;
#X obj 603 253 / 127;
#X obj 15 206 ctlin 17 1;
#X obj 99 206 ctlin 17 2;
#X obj 183 206 ctlin 17 3;
#X obj 267 206 ctlin 17 4;
#X obj 351 206 ctlin 17 5;
#X obj 435 206 ctlin 17 6;
#X obj 519 206 ctlin 17 7;
#X obj 603 206 ctlin 17 8;
#X obj 980 37 bendin;
#X obj 980 61 / 8192;
#N canvas 233 225 691 458 crack 0;
#X obj 212 248 vsl 15 128 0 1 0 0 empty empty empty 0 -9 0 10 #fcfcfc
#000000 #000000 0 1;
#X obj 216 57 int;
#X obj 216 33 * 2;
#X obj 406 16 inlet;
#X obj 106 12 inlet;
#X obj 81 301 outlet;
#X obj 406 50 tgl 15 0 empty empty empty 17 7 0 10 #fcfcfc #000000
#000000 0 1;
#X obj 406 70 select;
#X obj 45 188 spigot;
#X obj 84 168 tgl 15 0 empty empty empty 17 7 0 10 #fcfcfc #000000
#000000 0 1;
#X obj 106 188 spigot;
#X obj 145 168 tgl 15 0 empty empty empty 17 7 0 10 #fcfcfc #000000
#000000 0 1;
#X msg 406 96 1;
#X msg 406 120 0;
#X msg 445 96 0;
#X msg 445 120 1;
#X obj 84 136 loadbang;
#X obj 106 88 expr (1 - $f3) * $f1 + $f3 * $f2;
#X obj 327 58 / 127;
#X obj 327 32 ctlin 7 4;
#X connect 1 0 17 1;
#X connect 2 0 1 0;
#X connect 3 0 6 0;
#X connect 4 0 8 0;
#X connect 4 0 2 0;
#X connect 4 0 17 0;
#X connect 6 0 7 0;
#X connect 7 0 13 0;
#X connect 7 0 12 0;
#X connect 7 1 14 0;
#X connect 7 1 15 0;
#X connect 8 0 5 0;
#X connect 8 0 0 0;
#X connect 9 0 8 1;
#X connect 10 0 5 0;
#X connect 10 0 0 0;
#X connect 11 0 10 1;
#X connect 12 0 9 0;
#X connect 13 0 11 0;
#X connect 14 0 9 0;
#X connect 15 0 11 0;
#X connect 16 0 9 0;
#X connect 17 0 10 0;
#X connect 18 0 17 2;
#X connect 19 0 18 0;
#X restore 980 119 pd crack;
#X obj 1033 99 tgl 15 0 empty empty empty 17 7 0 10 #fcfcfc #000000
#000000 0 1;
#X obj 980 87 * 0.5;
#X obj 980 143 - 0.5;
#X text 983 18 bend;
#X obj 908 37 ctlin 1 1;
#X obj 908 61 / 127;
#X floatatom 908 85 5 0 0 0 - - - 0;
#X text 907 18 mod;
#X obj 15 277 s ctl17;
#X obj 99 277 s ctl18;
#X obj 183 277 s ctl19;
#X obj 267 277 s ctl20;
#X obj 351 277 s ctl21;
#X obj 435 277 s ctl22;
#X obj 519 277 s ctl23;
#X obj 603 277 s ctl24;
#X obj 604 180 s ctl16;
#X obj 520 180 s ctl15;
#X obj 436 180 s ctl14;
#X obj 352 180 s ctl13;
#X obj 268 180 s ctl12;
#X obj 184 180 s ctl11;
#X obj 100 180 s ctl10;
#X obj 16 180 s ctl9;
#X obj 980 172 s bend-\$1;
#X obj 908 108 s mod-\$1;
#X connect 0 0 1 0;
#X connect 1 0 2 0;
#X connect 3 0 0 0;
#X connect 4 0 5 0;
#X connect 5 0 49 0;
#X connect 6 0 7 0;
#X connect 7 0 50 0;
#X connect 8 0 9 0;
#X connect 9 0 51 0;
#X connect 10 0 11 0;
#X connect 11 0 52 0;
#X connect 12 0 13 0;
#X connect 13 0 53 0;
#X connect 14 0 15 0;
#X connect 15 0 54 0;
#X connect 16 0 17 0;
#X connect 17 0 55 0;
#X connect 18 0 19 0;
#X connect 19 0 106 0;
#X connect 20 0 21 0;
#X connect 21 0 105 0;
#X connect 22 0 23 0;
#X connect 23 0 104 0;
#X connect 24 0 25 0;
#X connect 25 0 103 0;
#X connect 26 0 27 0;
#X connect 27 0 102 0;
#X connect 28 0 29 0;
#X connect 29 0 101 0;
#X connect 30 0 31 0;
#X connect 31 0 100 0;
#X connect 32 0 33 0;
#X connect 33 0 99 0;
#X connect 34 0 4 0;
#X connect 35 0 6 0;
#X connect 36 0 8 0;
#X connect 37 0 10 0;
#X connect 38 0 12 0;
#X connect 39 0 14 0;
#X connect 40 0 16 0;
#X connect 41 0 18 0;
#X connect 42 0 20 0;
#X connect 43 0 22 0;
#X connect 44 0 24 0;
#X connect 45 0 26 0;
#X connect 46 0 28 0;
#X connect 47 0 30 0;
#X connect 48 0 32 0;
#X connect 56 0 57 0;
#X connect 57 0 91 0;
#X connect 58 0 59 0;
#X connect 59 0 92 0;
#X connect 60 0 61 0;
#X connect 61 0 93 0;
#X connect 62 0 63 0;
#X connect 63 0 94 0;
#X connect 64 0 65 0;
#X connect 65 0 95 0;
#X connect 66 0 67 0;
#X connect 67 0 96 0;
#X connect 68 0 69 0;
#X connect 69 0 97 0;
#X connect 70 0 71 0;
#X connect 71 0 98 0;
#X connect 72 0 56 0;
#X connect 73 0 58 0;
#X connect 74 0 60 0;
#X connect 75 0 62 0;
#X connect 76 0 64 0;
#X connect 77 0 66 0;
#X connect 78 0 68 0;
#X connect 79 0 70 0;
#X connect 80 0 81 0;
#X connect 81 0 84 0;
#X connect 82 0 85 0;
#X connect 83 0 82 1;
#X connect 84 0 82 0;
#X connect 85 0 107 0;
#X connect 87 0 88 0;
#X connect 88 0 89 0;
#X connect 89 0 108 0;
#X restore 307 55 pd controles;
#X obj 803 89 r ctl8;
#X obj 287 27 cnv 15 10 10 empty empty Controls_in 20 12 0 20 #fcfcfc
#000000 0;
#X obj 682 89 r ctl7;
#X obj 490 89 r ctl5;
#X obj 575 88 r ctl6;
#X obj 475 369 select 1;
#X obj 475 343 r ctl21;
#X obj 700 369 select 1;
#X obj 700 343 r ctl22;
#X obj 688 198 min 1;
#X obj 688 222 max 0.001;
#X obj 263 178 r ctl9;
#X obj 321 178 r ctl10;
#X obj 263 225 s left-sample-limit;
#X obj 321 202 s right-sample-limit;
#X floatatom 222 221 5 0 0 0 - - - 0;
#X obj 1063 269 s freq-knob-\$1;
#X obj 688 246 s duty-send-knob-\$1;
#X obj 492 194 s start-pos-knob-\$1;
#X obj 575 300 s wheel-knob-\$1;
#X obj 833 273 s table-size-slider-knob-\$1;
#X obj 575 172 r ctl12;
#X obj 492 173 r ctl11;
#X obj 688 174 r ctl13;
#X obj 833 174 r ctl14;
#X obj 1063 170 r ctl16;
#X obj 1213 118 r ctl15;
#X obj 1213 167 t b f;
#X obj 1063 200 expr $f2 * pow (2 * ($f1 - 0.5) \, 7);
#X obj 700 394 s swappie-\$1;
#X obj 475 394 s load-change-buffer-length-\$1;
#X obj 1213 143 expr 1 + (2000 * pow($f1 \, 4));
#X obj 803 114 s vol-knob-\$1;
#X obj 590 216 r mod-\$1;
#X obj 575 279 -;
#X obj 590 258 t b f;
#X obj 590 237 * 0.03;
#X connect 1 0 0 0;
#X connect 1 1 0 1;
#X connect 1 2 0 2;
#X connect 3 0 4 0;
#X connect 4 0 32 0;
#X connect 6 0 28 0;
#X connect 7 0 6 0;
#X connect 9 0 3 0;
#X connect 12 0 44 0;
#X connect 15 0 8 0;
#X connect 16 0 10 0;
#X connect 17 0 42 0;
#X connect 18 0 17 0;
#X connect 19 0 41 0;
#X connect 20 0 19 0;
#X connect 21 0 22 0;
#X connect 22 0 29 0;
#X connect 23 0 25 0;
#X connect 23 0 27 0;
#X connect 24 0 26 0;
#X connect 33 0 46 0;
#X connect 34 0 30 0;
#X connect 35 0 21 0;
#X connect 36 0 9 0;
#X connect 37 0 40 0;
#X connect 38 0 43 0;
#X connect 39 0 40 0;
#X connect 39 1 40 1;
#X connect 40 0 7 0;
#X connect 43 0 39 0;
#X connect 45 0 48 0;
#X connect 46 0 31 0;
#X connect 47 0 46 0;
#X connect 47 1 46 1;
#X connect 48 0 47 0;
