#N canvas 1209 276 826 651 12;
#X obj 65 300 moses 20;
#X floatatom 118 323 5 0 0 0 - - -;
#X floatatom 64 369 5 0 0 0 - - -;
#X obj 118 345 moses 40;
#X obj 171 368 / 2;
#X obj 171 250 * 2;
#X obj 118 462 * 2;
#X obj 65 323 abs;
#X obj 65 346 * 2;
#N canvas 0 50 450 250 (subpatch) 0;
#X array gains\$0 100 float 5;
#A 0 0.0439369 0.0497249 0.0561348 0.0632127 0.0710053 0.0795595 0.0889216
0.0991372 0.110251 0.122303 0.135335 0.149382 0.164474 0.18064 0.197899
0.216265 0.235746 0.25634 0.278037 0.300818 0.324652 0.349501 0.375311
0.402021 0.429557 0.457833 0.486752 0.516206 0.546074 0.576229 0.606531
0.636832 0.666977 0.696805 0.726149 0.75484 0.782705 0.809572 0.83527
0.859633 0.882497 0.903707 0.923116 0.940588 0.955997 0.969233 0.980199
0.988813 0.995012 0.998751 1 0.998751 0.995012 0.988813 0.980199 0.969233
0.955997 0.940588 0.923116 0.903707 0.882497 0.859633 0.83527 0.809572
0.782705 0.75484 0.726149 0.696805 0.666977 0.636832 0.606531 0.576229
0.546074 0.516206 0.486752 0.457833 0.429557 0.402021 0.375311 0.349501
0.324652 0.300818 0.278037 0.25634 0.235746 0.216265 0.197899 0.18064
0.164474 0.149382 0.135335 0.122303 0.110251 0.0991372 0.0889216 0.0795595
0.0710053 0.0632127 0.0561348 0.0439369;
#X coords 0 1 100 0 200 140 1 0 0;
#X restore 203 280 graph;
#X obj 200 243 s lowest-freq;
#X floatatom 118 372 5 0 0 0 - - -;
#X obj 119 617 outlet~;
#X obj 119 591 log-fader;
#X obj 203 460 vsl 15 128 0 1 0 0 empty sub-volume empty 0 -9 0 10
-262144 -1 -1 0 1;
#X obj 118 197 loadbang;
#X obj 246 546 loadbang;
#X obj 314 460 r vel\$1;
#X obj 153 430 s subfreq;
#X msg 118 222 25;
#X msg 246 570 0.8;
#X obj 65 114 +;
#X obj 96 55 *;
#X obj 96 31 r bend;
#X obj 96 79 t b f;
#X obj 65 7 r freq\$1;
#X obj 65 181 * 1;
#X obj 106 110 r pitch-knob;
#X obj 106 136 t b f;
#X obj 138 162 + 0.01;
#X obj 410 280 loadbang;
#X obj 410 306 f \$0;
#X obj 410 332 s sub-dollar-zero;
#N canvas 0 50 586 281 set-table 0;
#X obj 28 159 expr $f2 * exp (- pow(($f1 - $f3) \, 2) / 2 * pow ($f4
\, 2));
#X obj 28 135 t f f;
#X floatatom 28 185 5 0 0 0 - - -;
#N canvas 748 325 313 214 0-100 0;
#X obj 86 126 + 1;
#X obj 57 105 bng 15 250 50 0 empty empty empty 17 7 0 10 -262144 -1
-1;
#X obj 57 126 f 0;
#X msg 19 90 0;
#X floatatom 57 152 5 0 0 0 - - -;
#X obj 57 78 metro 1;
#X obj 57 55 tgl 15 0 empty empty empty 17 7 0 10 -262144 -1 -1 0 1
;
#X obj 19 55 bng 15 250 50 0 empty empty empty 17 7 0 10 -262144 -1
-1;
#X obj 23 13 inlet;
#X obj 57 177 outlet;
#X obj 165 27 sel 100;
#X connect 0 0 2 1;
#X connect 1 0 2 0;
#X connect 2 0 0 0;
#X connect 2 0 4 0;
#X connect 3 0 2 0;
#X connect 4 0 9 0;
#X connect 4 0 10 0;
#X connect 5 0 1 0;
#X connect 6 0 5 0;
#X connect 7 0 3 0;
#X connect 7 0 6 0;
#X connect 8 0 7 0;
#X connect 10 0 6 0;
#X restore 28 90 pd 0-100;
#X floatatom 28 113 5 0 0 0 - - -;
#X obj 28 71 bng 15 250 50 0 empty empty empty 17 7 0 10 -262144 -1
-1;
#X msg 292 135 50;
#X msg 160 134 1;
#X msg 425 136 0.05;
#X obj 132 24 loadbang;
#X obj 132 50 t b b;
#X obj 28 208 tabwrite gains\$0;
#X connect 0 0 2 0;
#X connect 1 0 0 0;
#X connect 1 1 11 1;
#X connect 2 0 11 0;
#X connect 3 0 4 0;
#X connect 4 0 1 0;
#X connect 5 0 3 0;
#X connect 6 0 0 2;
#X connect 7 0 0 1;
#X connect 8 0 0 3;
#X connect 9 0 10 0;
#X connect 10 0 5 0;
#X connect 10 1 7 0;
#X connect 10 1 6 0;
#X connect 10 1 8 0;
#X restore 411 360 pd set-table;
#N canvas 0 50 450 300 sub-osc 0;
#X obj 27 219 *~, f 8;
#X obj 27 20 inlet;
#X obj 98 20 r lowest-freq;
#X obj 80 47 -;
#X obj 80 70 /;
#X obj 80 93 * 100;
#X obj 27 196 osc~;
#X obj 27 242 *~;
#X obj 27 265 outlet~;
#X obj 207 173 inlet;
#X msg 207 197 \$1 20;
#X obj 207 221 line~;
#X obj 27 72 line~;
#X msg 27 46 \$1 100;
#X msg 80 119 \$1 100;
#X obj 80 145 line~;
#X obj 80 173 tabread4~ gains\$0;
#X connect 0 0 7 0;
#X connect 1 0 3 0;
#X connect 1 0 13 0;
#X connect 2 0 3 1;
#X connect 2 0 4 1;
#X connect 3 0 4 0;
#X connect 4 0 5 0;
#X connect 5 0 14 0;
#X connect 6 0 0 0;
#X connect 7 0 8 0;
#X connect 9 0 10 0;
#X connect 10 0 11 0;
#X connect 11 0 7 1;
#X connect 12 0 6 0;
#X connect 13 0 12 0;
#X connect 14 0 15 0;
#X connect 15 0 16 0;
#X connect 16 0 0 1;
#X restore 38 507 pd sub-osc;
#N canvas 0 50 450 300 sub-osc 0;
#X obj 27 219 *~, f 8;
#X obj 27 20 inlet;
#X obj 98 20 r lowest-freq;
#X obj 80 47 -;
#X obj 80 70 /;
#X obj 80 93 * 100;
#X obj 27 196 osc~;
#X obj 27 242 *~;
#X obj 27 265 outlet~;
#X obj 207 173 inlet;
#X msg 207 197 \$1 20;
#X obj 207 221 line~;
#X obj 27 72 line~;
#X msg 27 46 \$1 100;
#X msg 80 119 \$1 100;
#X obj 80 145 line~;
#X obj 80 173 tabread4~ gains\$0;
#X connect 0 0 7 0;
#X connect 1 0 3 0;
#X connect 1 0 13 0;
#X connect 2 0 3 1;
#X connect 2 0 4 1;
#X connect 3 0 4 0;
#X connect 4 0 5 0;
#X connect 5 0 14 0;
#X connect 6 0 0 0;
#X connect 7 0 8 0;
#X connect 9 0 10 0;
#X connect 10 0 11 0;
#X connect 11 0 7 1;
#X connect 12 0 6 0;
#X connect 13 0 12 0;
#X connect 14 0 15 0;
#X connect 15 0 16 0;
#X connect 16 0 0 1;
#X restore 118 507 pd sub-osc;
#X obj 65 55 f 1;
#X obj 314 486 spigot;
#X obj 381 465 r voice-\$2-on;
#X obj 438 523 tgl 15 0 empty empty empty 17 7 0 10 -262144 -1 -1 0
1;
#X connect 0 0 2 0;
#X connect 0 0 7 0;
#X connect 0 1 1 0;
#X connect 1 0 3 0;
#X connect 3 0 11 0;
#X connect 3 1 4 0;
#X connect 4 0 3 0;
#X connect 5 0 3 1;
#X connect 6 0 35 0;
#X connect 7 0 8 0;
#X connect 8 0 0 0;
#X connect 11 0 18 0;
#X connect 11 0 6 0;
#X connect 11 0 34 0;
#X connect 13 0 12 0;
#X connect 14 0 13 1;
#X connect 15 0 19 0;
#X connect 16 0 20 0;
#X connect 17 0 37 0;
#X connect 19 0 0 1;
#X connect 19 0 5 0;
#X connect 19 0 10 0;
#X connect 20 0 13 2;
#X connect 21 0 26 0;
#X connect 22 0 24 0;
#X connect 23 0 22 0;
#X connect 24 0 36 0;
#X connect 24 1 21 1;
#X connect 25 0 22 1;
#X connect 25 0 36 0;
#X connect 26 0 0 0;
#X connect 27 0 28 0;
#X connect 28 0 36 0;
#X connect 28 1 29 0;
#X connect 29 0 26 1;
#X connect 30 0 31 0;
#X connect 31 0 32 0;
#X connect 34 0 13 0;
#X connect 35 0 13 0;
#X connect 36 0 21 0;
#X connect 37 0 35 1;
#X connect 37 0 34 1;
#X connect 38 0 37 1;
#X connect 38 0 39 0;
