#N canvas 0 50 454 435 12;
#X obj 27 219 *~, f 8;
#X obj 27 20 inlet;
#X obj 98 20 r lowest-freq;
#X obj 80 47 -;
#X obj 80 70 /;
#X obj 80 93 * 100;
#X obj 27 196 osc~;
#X obj 27 242 *~;
#X obj 27 265 outlet~;
#X obj 207 173 inlet;
#X msg 207 197 \$1 20;
#X obj 207 221 line~;
#X obj 27 72 line~;
#X msg 27 46 \$1 100;
#X msg 80 119 \$1 100;
#X obj 80 145 line~;
#X msg 196 144 set gains\$1;
#X obj 196 118 r sub-dollar-zero;
#X obj 80 173 tabread4~;
#X connect 0 0 7 0;
#X connect 1 0 3 0;
#X connect 1 0 13 0;
#X connect 2 0 3 1;
#X connect 2 0 4 1;
#X connect 3 0 4 0;
#X connect 4 0 5 0;
#X connect 5 0 14 0;
#X connect 6 0 0 0;
#X connect 7 0 8 0;
#X connect 9 0 10 0;
#X connect 10 0 11 0;
#X connect 11 0 7 1;
#X connect 12 0 6 0;
#X connect 13 0 12 0;
#X connect 14 0 15 0;
#X connect 15 0 18 0;
#X connect 16 0 18 0;
#X connect 17 0 16 0;
#X connect 18 0 0 1;
