#N canvas 518 -18 1920 997 12;
#X obj 218 364 phasor~;
#X obj 217 815 hip~ 5;
#X obj 526 582 s pos;
#N canvas 48 321 345 410 unsig 0;
#X obj 43 22 inlet~;
#X obj 43 167 snapshot~;
#X obj 57 45 loadbang;
#X obj 57 68 t b b;
#X obj 89 90 f \$1;
#X obj 89 113 sel 0;
#X obj 43 190 outlet;
#X obj 138 53 bng 15 250 50 0 empty empty empty 17 7 0 10 #fcfcfc #000000
#000000;
#X obj 57 139 metro 10;
#X connect 0 0 1 0;
#X connect 1 0 6 0;
#X connect 2 0 3 0;
#X connect 3 0 8 0;
#X connect 3 1 4 0;
#X connect 4 0 5 0;
#X connect 5 1 8 1;
#X connect 7 0 3 0;
#X connect 8 0 1 0;
#X restore 526 531 pd unsig;
#X obj 223 248 t b f;
#X floatatom 171 269 5 0 0 0 - - - 0;
#X obj 218 485 *~;
#X obj 218 511 +~;
#X msg 171 292 \$1 10;
#X obj 171 318 line~;
#X obj 218 340 *~;
#X msg 255 295 \$1 10;
#X obj 255 319 line~;
#X obj 68 622 tabread4~ table-env;
#X obj 218 744 *~;
#X obj 218 943 outlet~;
#X obj 218 720 *~;
#N canvas 0 50 345 410 unsig 0;
#X obj 43 22 inlet~;
#X obj 43 167 snapshot~;
#X obj 57 45 loadbang;
#X obj 57 68 t b b;
#X obj 89 90 f \$1;
#X obj 89 113 sel 0;
#X obj 43 190 outlet;
#X obj 138 53 bng 15 250 50 0 empty empty empty 17 7 0 10 #fcfcfc #000000
#000000;
#X obj 57 139 metro 10;
#X connect 0 0 1 0;
#X connect 1 0 6 0;
#X connect 2 0 3 0;
#X connect 3 0 8 0;
#X connect 3 1 4 0;
#X connect 4 0 5 0;
#X connect 5 1 8 1;
#X connect 7 0 3 0;
#X connect 8 0 1 0;
#X restore 137 817 pd unsig;
#X floatatom 137 841 5 0 0 0 - - - 0;
#X obj 171 120 +;
#X obj 202 61 *;
#X obj 202 37 r bend;
#X obj 202 85 t b f;
#X obj 217 688 *~;
#N canvas 328 559 363 192 velocity-control 0;
#N canvas 0 50 166 110 ramp 0;
#X obj 12 63 line~;
#X msg 12 39 \$1 20;
#X obj 12 11 inlet;
#X obj 12 87 outlet~;
#X connect 0 0 3 0;
#X connect 1 0 0 0;
#X connect 2 0 1 0;
#X restore 93 105 pd ramp;
#X obj 127 15 r vel-on;
#X obj 127 38 tgl 15 0 empty empty empty 17 7 0 10 #fcfcfc #000000
#000000 0 1;
#X obj 95 55 moses;
#X msg 127 79 1;
#X obj 14 32 moses 0.0001;
#X obj 94 132 outlet~;
#X obj 14 11 r vel\$1;
#X connect 0 0 6 0;
#X connect 1 0 2 0;
#X connect 2 0 3 1;
#X connect 3 0 0 0;
#X connect 3 1 4 0;
#X connect 4 0 0 0;
#X connect 5 0 0 0;
#X connect 5 1 3 0;
#X connect 7 0 5 0;
#X restore 303 700 pd velocity-control;
#N canvas 0 50 404 182 volume-control 0;
#X floatatom 25 59 5 0 0 0 - - - 0;
#X obj 25 33 r amp;
#X obj 80 112 s amp-ctl;
#X obj 80 38 * 2;
#N canvas 0 50 279 135 ramp 0;
#X obj 12 63 line~;
#X msg 12 39 \$1 20;
#X obj 12 11 inlet;
#X obj 12 87 outlet~;
#X connect 0 0 3 0;
#X connect 1 0 0 0;
#X connect 2 0 1 0;
#X restore 25 84 pd ramp;
#X obj 80 9 r vol;
#X obj 25 112 outlet~;
#X connect 0 0 4 0;
#X connect 1 0 0 0;
#X connect 3 0 2 0;
#X connect 3 0 0 0;
#X connect 4 0 6 0;
#X connect 5 0 3 0;
#X restore 303 668 pd volume-control;
#X obj 217 627 *~;
#X obj 367 633 *~;
#X obj 217 653 +~;
#X obj 405 631 hsl 128 15 0 1 0 0 empty show-interpol empty -2 -8 0
10 #fcfcfc #000000 #000000 0 1;
#X obj 234 604 cyclone/rminus~ 1;
#X obj 210 120 r pitch-knob;
#X obj 171 194 * 1;
#X obj 210 146 t b f;
#X obj 209 173 + 0.01;
#X text 313 167 Frequency -> phasor speed;
#X text 426 504 read and interpolatae;
#X text 360 781 Amp;
#X obj 139 788 lop~ 250;
#X obj 218 447 wrap~;
#X obj 171 61 f 1;
#X obj 217 841 *~;
#X obj 285 769 > 0;
#X msg 285 795 \$1 10;
#X obj 285 821 line~;
#X obj 223 215 r synth-on;
#X obj 526 557 spigot;
#N canvas 0 50 450 300 visual 0;
#X obj 22 14 loadbang;
#X obj 22 66 select 1;
#X msg 22 94 1;
#X msg 75 94 0;
#X obj 114 14 loadbang;
#X obj 114 66 select 1;
#X msg 114 94 1;
#X msg 167 94 0;
#X obj 80 151 &;
#X obj 114 120 t b f;
#X obj 80 181 tgl 15 0 empty empty empty 17 7 0 10 #fcfcfc #000000
#000000 0 1;
#X obj 80 201 s send-visual-\$1-\$2;
#X obj 22 40 f \$1;
#X obj 114 40 f \$2;
#X connect 0 0 12 0;
#X connect 1 0 2 0;
#X connect 1 1 3 0;
#X connect 2 0 8 0;
#X connect 3 0 8 0;
#X connect 4 0 13 0;
#X connect 5 0 6 0;
#X connect 5 1 7 0;
#X connect 6 0 9 0;
#X connect 7 0 8 0;
#X connect 8 0 10 0;
#X connect 9 0 8 0;
#X connect 9 1 8 1;
#X connect 10 0 11 0;
#X connect 12 0 1 0;
#X connect 13 0 5 0;
#X restore 573 314 pd visual;
#X obj 384 584 receive~ interpol;
#X obj 314 317 r reset-phase;
#X msg 314 343 0;
#X obj 217 555 tabread4~ sampler;
#X obj 367 555 tabread4~ sampler1;
#X obj 596 531 r send-visual-\$1-\$2;
#X obj 285 743 r voice-\$2-on;
#X obj 171 6 r freq\$1;
#X obj 218 421 +~ \$3;
#X obj 313 419 r phasor-mult;
#X msg 371 468 \$1 10;
#X obj 371 491 line~;
#X obj 313 465 line~;
#X msg 313 442 \$1 250;
#X obj 371 445 r left-limit;
#X obj 813 850 line~;
#X obj 683 841 *~;
#X obj 701 772 r del-feedback;
#X msg 813 823 \$1 10;
#X obj 813 213 expr (1/$f1)*1000;
#X obj 813 339 / 3;
#N canvas 0 50 393 287 delays 0;
#X obj 58 25 r voice-2-on;
#X obj 152 25 r voice-3-on;
#X obj 98 197 outlet;
#X obj 58 51 select 0;
#X obj 152 51 select 0;
#X msg 58 77 0;
#X msg 152 77 0;
#X obj 98 153 +;
#X msg 111 77 1;
#X msg 205 78 2;
#X obj 152 103 t b f;
#X connect 0 0 3 0;
#X connect 1 0 4 0;
#X connect 3 0 5 0;
#X connect 3 1 8 0;
#X connect 4 0 6 0;
#X connect 4 1 9 0;
#X connect 5 0 7 0;
#X connect 6 0 10 0;
#X connect 7 0 2 0;
#X connect 8 0 7 0;
#X connect 9 0 10 0;
#X connect 10 0 7 0;
#X connect 10 1 7 1;
#X restore 870 236 pd delays;
#X obj 870 296 t b f;
#X obj 870 262 moses 0.1;
#X obj 684 896 *~;
#X obj 884 874 line~;
#X msg 930 431 1 10;
#X msg 870 431 0 10;
#X obj 684 870 delread4~ voice-delay-\$1-\$2;
#X obj 452 861 delwrite~ voice-delay-\$1-\$2 1000;
#X obj 701 798 moses 0.1;
#X obj 217 916 *~ 0.5;
#X obj 544 358 r duty;
#X obj 218 388 expr~ min($v1 / max($f2 \, 0.001) \, 1);
#X obj 67 595 *~ 10000;
#X text 10 232 adjust for sample-length?;
#X connect 0 0 81 0;
#X connect 1 0 41 0;
#X connect 3 0 46 0;
#X connect 4 0 5 0;
#X connect 4 1 11 0;
#X connect 5 0 8 0;
#X connect 6 0 7 0;
#X connect 7 0 3 0;
#X connect 7 0 51 0;
#X connect 7 0 52 0;
#X connect 8 0 9 0;
#X connect 9 0 10 0;
#X connect 10 0 0 0;
#X connect 11 0 12 0;
#X connect 12 0 10 1;
#X connect 13 0 14 1;
#X connect 14 0 1 0;
#X connect 16 0 14 0;
#X connect 17 0 18 0;
#X connect 19 0 32 0;
#X connect 20 0 22 0;
#X connect 21 0 20 0;
#X connect 22 0 40 0;
#X connect 22 1 19 1;
#X connect 23 0 16 0;
#X connect 24 0 16 1;
#X connect 25 0 23 1;
#X connect 26 0 28 0;
#X connect 27 0 28 1;
#X connect 28 0 23 0;
#X connect 30 0 26 1;
#X connect 31 0 33 0;
#X connect 32 0 67 0;
#X connect 32 0 5 0;
#X connect 33 0 40 0;
#X connect 33 1 34 0;
#X connect 34 0 32 1;
#X connect 39 0 6 0;
#X connect 40 0 19 0;
#X connect 41 0 77 0;
#X connect 41 0 79 0;
#X connect 42 0 43 0;
#X connect 43 0 44 0;
#X connect 44 0 41 1;
#X connect 45 0 4 0;
#X connect 46 0 2 0;
#X connect 48 0 30 0;
#X connect 48 0 27 1;
#X connect 49 0 50 0;
#X connect 50 0 0 1;
#X connect 51 0 26 0;
#X connect 52 0 27 0;
#X connect 53 0 46 1;
#X connect 54 0 42 0;
#X connect 55 0 20 1;
#X connect 55 0 40 0;
#X connect 56 0 39 0;
#X connect 57 0 61 0;
#X connect 58 0 59 0;
#X connect 59 0 7 1;
#X connect 60 0 6 1;
#X connect 61 0 60 0;
#X connect 62 0 58 0;
#X connect 63 0 76 0;
#X connect 64 0 77 0;
#X connect 65 0 64 1;
#X connect 65 0 78 0;
#X connect 66 0 63 0;
#X connect 67 0 68 0;
#X connect 68 0 66 0;
#X connect 69 0 71 0;
#X connect 70 0 68 0;
#X connect 70 1 68 1;
#X connect 71 0 75 0;
#X connect 71 1 70 0;
#X connect 71 1 74 0;
#X connect 72 0 79 0;
#X connect 73 0 72 1;
#X connect 74 0 73 0;
#X connect 75 0 73 0;
#X connect 76 0 64 0;
#X connect 76 0 72 0;
#X connect 78 0 75 0;
#X connect 78 1 74 0;
#X connect 79 0 15 0;
#X connect 80 0 81 1;
#X connect 81 0 56 0;
#X connect 81 0 82 0;
#X connect 82 0 13 0;
